<?xml version="1.0" standalone="no"?>
<!DOCTYPE svg PUBLIC "-//W3C//DTD SVG 20010904//EN"
 "http://www.w3.org/TR/2001/REC-SVG-20010904/DTD/svg10.dtd">
<svg version="1.0" xmlns="http://www.w3.org/2000/svg"
 width="2138.000000pt" height="2138.000000pt" viewBox="0 0 2138.000000 2138.000000"
 preserveAspectRatio="xMidYMid meet">
<metadata>
Created by potrace 1.14, written by Peter Selinger 2001-2017
</metadata>
<g transform="translate(0.000000,2138.000000) scale(0.100000,-0.100000)"
fill="#000000" stroke="none">
<path d="M10325 21354 c-414 -21 -643 -39 -935 -74 -2163 -264 -4179 -1179
-5815 -2639 -194 -173 -595 -572 -780 -776 -1158 -1275 -1980 -2784 -2419
-4440 -179 -676 -286 -1338 -338 -2105 -27 -404 -15 -1148 28 -1605 214 -2320
1161 -4473 2729 -6200 185 -204 586 -603 780 -776 1557 -1389 3475 -2293 5515
-2598 560 -84 995 -115 1600 -115 524 0 832 17 1300 74 2163 264 4179 1179
5815 2639 194 173 595 572 780 776 1158 1275 1980 2784 2419 4440 179 676 286
1338 338 2105 27 404 15 1148 -28 1605 -214 2320 -1161 4473 -2729 6200 -185
204 -586 603 -780 776 -1264 1127 -2754 1932 -4380 2363 -671 178 -1339 286
-2090 336 -151 11 -880 21 -1010 14z m-1365 -7498 c444 -71 842 -247 1160
-514 240 -201 460 -479 621 -786 l62 -118 20 34 c495 822 1151 1275 2012 1390
135 18 645 18 780 0 750 -100 1326 -447 1718 -1034 239 -358 388 -793 454
-1328 15 -121 17 -360 20 -2312 l4 -2178 -326 0 -325 0 0 2083 c0 1312 -4
2126 -10 2202 -74 876 -428 1488 -1035 1789 -472 234 -1082 272 -1605 100
-533 -175 -949 -545 -1200 -1067 -144 -299 -221 -602 -250 -977 -6 -86 -10
-865 -10 -2132 l0 -1998 -320 0 -320 0 0 2048 c0 2036 -3 2211 -35 2452 -52
379 -196 769 -382 1030 -84 117 -262 303 -365 381 -230 173 -496 285 -808 340
-148 27 -436 36 -580 20 -489 -56 -908 -264 -1255 -623 -354 -365 -568 -814
-662 -1390 -16 -94 -17 -285 -20 -2180 l-3 -2078 -325 0 -325 0 2 3358 3 3357
322 3 323 2 2 -596 3 -596 60 94 c82 128 215 304 323 430 393 455 893 726
1467 797 50 6 104 13 120 15 82 11 586 -3 685 -18z"/>
</g>
</svg>
